<svg width="1280" height="720" viewBox="0 0 1280 720" fill="none" xmlns="http://www.w3.org/2000/svg">
<g clip-path="url(#clip0)">
<rect x="-150" y="324" width="360" height="123" rx="5" fill="#374955" fill-opacity="0.05"/>
<ellipse cx="188" cy="341.5" rx="7" ry="7.5" fill="#9D9D9D" fill-opacity="0.15"/>
<rect x="-131" y="366" width="283" height="6" rx="3" fill="#9D9D9D" fill-opacity="0.15"/>
<rect x="-131" y="335" width="202" height="13" rx="6.5" fill="#9D9D9D" fill-opacity="0.15"/>
<rect x="-131" y="382" width="266" height="7" rx="3.5" fill="#9D9D9D" fill-opacity="0.15"/>
<rect x="-131" y="399" width="283" height="6" rx="3" fill="#9D9D9D" fill-opacity="0.15"/>
<rect x="-131" y="415" width="202" height="6" rx="3" fill="#9D9D9D" fill-opacity="0.15"/>
<rect x="1041" y="188" width="283" height="6" rx="3" fill="#9D9D9D" fill-opacity="0.15"/>
<rect x="1041" y="157" width="202" height="13" rx="6.5" fill="#9D9D9D" fill-opacity="0.15"/>
<rect x="1041" y="204" width="266" height="7" rx="3.5" fill="#9D9D9D" fill-opacity="0.15"/>
<rect x="1041" y="221" width="283" height="6" rx="3" fill="#9D9D9D" fill-opacity="0.15"/>
<rect x="1041" y="237" width="202" height="6" rx="3" fill="#9D9D9D" fill-opacity="0.15"/>
<rect x="1022" y="597" width="360" height="123" rx="5" fill="#374955" fill-opacity="0.05"/>
<rect x="1041" y="639" width="283" height="6" rx="3" fill="#9D9D9D" fill-opacity="0.15"/>
<rect x="1041" y="608" width="202" height="13" rx="6.5" fill="#9D9D9D" fill-opacity="0.15"/>
<rect x="1041" y="655" width="266" height="7" rx="3.5" fill="#9D9D9D" fill-opacity="0.15"/>
<rect x="1041" y="672" width="283" height="6" rx="3" fill="#9D9D9D" fill-opacity="0.15"/>
<rect x="1041" y="688" width="202" height="6" rx="3" fill="#9D9D9D" fill-opacity="0.15"/>
</g>
<defs>
<clipPath id="clip0">
<rect width="1280" height="720" fill="white"/>
</clipPath>
</defs>
</svg>
